<?xml version="1.0" standalone="no"?>
<!DOCTYPE svg PUBLIC "-//W3C//DTD SVG 20010904//EN"
 "http://www.w3.org/TR/2001/REC-SVG-20010904/DTD/svg10.dtd">
<svg version="1.0" xmlns="http://www.w3.org/2000/svg"
 width="310.000000pt" height="310.000000pt" viewBox="0 0 310.000000 310.000000"
 preserveAspectRatio="xMidYMid meet">
<metadata>
Created by potrace 1.11, written by Peter Selinger 2001-2013
</metadata>
<g transform="translate(0.000000,310.000000) scale(0.100000,-0.100000)"
fill="#000000" stroke="none">
<path d="M101 3086 c-49 -27 -66 -102 -33 -142 14 -18 248 -195 362 -274 19
-13 40 -29 46 -35 6 -5 27 -21 47 -35 20 -14 37 -28 37 -32 0 -4 -16 -24 -35
-45 -61 -65 -146 -186 -197 -278 -70 -128 -113 -248 -155 -435 -19 -88 -25
-354 -10 -460 38 -276 181 -580 360 -770 26 -27 47 -52 47 -54 0 -4 -308 -227
-448 -323 -25 -18 -52 -43 -59 -55 -36 -66 14 -148 90 -148 30 0 50 13 314
203 126 90 237 168 247 174 14 8 31 1 84 -35 146 -98 332 -175 515 -214 141
-29 419 -32 552 -4 312 65 545 189 762 405 213 212 373 531 410 816 9 65 8
356 0 410 -73 471 -356 867 -775 1086 -126 66 -327 129 -467 146 -118 15 -373
7 -480 -15 -182 -38 -370 -116 -518 -216 -38 -25 -73 -46 -78 -46 -8 0 -96 64
-434 315 -109 81 -134 89 -184 61z m1782 -320 c289 -70 520 -218 710 -458 118
-149 220 -393 245 -583 9 -65 8 -287 -1 -345 -4 -25 -10 -63 -13 -85 -10 -66
-60 -206 -104 -295 -36 -75 -126 -217 -154 -246 -6 -6 -25 -26 -41 -45 -40
-45 -168 -156 -228 -197 -112 -78 -293 -153 -452 -189 -157 -35 -429 -22 -599
28 -107 32 -336 140 -336 159 0 7 83 67 857 618 249 177 459 332 467 344 21
30 20 81 -1 106 -19 23 -84 72 -325 249 -84 62 -219 161 -299 220 -80 60 -158
117 -173 128 -15 11 -58 43 -95 70 -37 28 -109 81 -161 120 -52 38 -139 102
-193 142 l-98 72 43 27 c121 77 283 141 423 168 44 8 89 17 100 19 11 2 88 3
170 2 121 -2 171 -8 258 -29z m-1010 -423 c73 -54 137 -101 142 -106 14 -11
296 -220 396 -293 109 -79 529 -389 551 -407 16 -12 12 -17 -45 -57 -211 -148
-1145 -813 -1163 -829 -13 -10 -25 -1 -84 65 -209 235 -314 508 -315 819 0
161 5 208 35 324 36 143 91 264 176 391 49 73 150 190 165 190 6 0 70 -44 142
-97z"/>
</g>
</svg>
